<?xml version="1.0"?>
<svg xmlns="http://www.w3.org/2000/svg" xmlns:xlink="http://www.w3.org/1999/xlink" xmlns:svgjs="http://svgjs.com/svgjs" version="1.1" width="512" height="512" x="0" y="0" viewBox="0 0 24 24" style="enable-background:new 0 0 512 512" xml:space="preserve"><g><path xmlns="http://www.w3.org/2000/svg" d="m15.5 7a8.5 8.5 0 1 0 8.5 8.5 8.51 8.51 0 0 0 -8.5-8.5zm0 14a5.5 5.5 0 1 1 5.5-5.5 5.507 5.507 0 0 1 -5.5 5.5zm3-7a1.5 1.5 0 0 1 0 3h-1.5v1.5a1.5 1.5 0 0 1 -3 0v-1.5h-1.5a1.5 1.5 0 0 1 0-3h1.5v-1.5a1.5 1.5 0 0 1 3 0v1.5zm-10.755-6.255-1.85 3.7a1 1 0 0 1 -.895.555h-.019a1 1 0 0 1 -.891-.586l-3.944-8.675a2.011 2.011 0 0 1 .442-2.151 1.99 1.99 0 0 1 2.061-.479.893.893 0 0 1 .09.037l8.675 3.944a1 1 0 0 1 .033 1.8z" fill="#ffffff" data-original="#000000"/></g></svg>
