<?xml version="1.0"?>
<svg xmlns="http://www.w3.org/2000/svg" xmlns:xlink="http://www.w3.org/1999/xlink" xmlns:svgjs="http://svgjs.com/svgjs" version="1.1" width="512" height="512" x="0" y="0" viewBox="0 0 24 24" style="enable-background:new 0 0 512 512" xml:space="preserve"><g><g xmlns="http://www.w3.org/2000/svg"><path d="M12,0A12,12,0,1,0,24,12,12.013,12.013,0,0,0,12,0Zm0,21a9,9,0,1,1,9-9A9.011,9.011,0,0,1,12,21Z" fill="#f5f5f5" data-original="#000000"/><path d="M15.449,12.815,13.5,14.731V6.5a1.5,1.5,0,0,0-3,0v8.231L8.551,12.815a1.5,1.5,0,1,0-2.1,2.14L9.55,18a3.524,3.524,0,0,0,4.9,0l3.1-3.048a1.5,1.5,0,1,0-2.1-2.14Z" fill="#f5f5f5" data-original="#000000"/></g></g></svg>
